HIERARCHY
ROOT Hips
{
	OFFSET 0.000000 0.000000 0.000000
	CHANNELS 6 Xposition Yposition Zposition Zrotation Yrotation Xrotation 
	JOINT LHipJoint
	{
		OFFSET 0.000000 0.000000 0.000000
		CHANNELS 3 Zrotation Yrotation Xrotation
		JOINT LeftUpLeg
		{
			OFFSET 1.363060 -1.794630 0.839290
			CHANNELS 3 Zrotation Yrotation Xrotation
			JOINT LeftLeg
			{
				OFFSET 2.448110 -6.726130 0.000000
				CHANNELS 3 Zrotation Yrotation Xrotation
				JOINT LeftFoot
				{
					OFFSET 2.562200 -7.039590 0.000000
					CHANNELS 3 Zrotation Yrotation Xrotation
					JOINT LeftToeBase
					{
						OFFSET 0.157640 -0.433110 2.322550
						CHANNELS 3 Zrotation Yrotation Xrotation
						End Site
						{
							OFFSET 0.000000 0.000000 0.000000
						}
					}
				}
			}
		}
	}
	JOINT RHipJoint
	{
		OFFSET 0.000000 0.000000 0.000000
		CHANNELS 3 Zrotation Yrotation Xrotation
		JOINT RightUpLeg
		{
			OFFSET -1.305520 -1.794630 0.839290
			CHANNELS 3 Zrotation Yrotation Xrotation
			JOINT RightLeg
			{
				OFFSET -2.542530 -6.985550 0.000000
				CHANNELS 3 Zrotation Yrotation Xrotation
				JOINT RightFoot
				{
					OFFSET -2.568260 -7.056230 0.000000
					CHANNELS 3 Zrotation Yrotation Xrotation
					JOINT RightToeBase
					{
						OFFSET -0.164730 -0.452590 2.363150
						CHANNELS 3 Zrotation Yrotation Xrotation
						End Site
						{
							OFFSET 0.000000 0.000000 0.000000
						}
					}
				}
			}
		}
	}
	JOINT LowerBack
	{
		OFFSET 0.000000 0.000000 0.000000
		CHANNELS 3 Zrotation Yrotation Xrotation
		JOINT Spine
		{
			OFFSET 0.028270 2.035590 -0.193380
			CHANNELS 3 Zrotation Yrotation Xrotation
			JOINT Spine1
			{
				OFFSET 0.056720 2.048850 -0.042750
				CHANNELS 3 Zrotation Yrotation Xrotation
				JOINT Neck
				{
					OFFSET 0.000000 0.000000 0.000000
					CHANNELS 3 Zrotation Yrotation Xrotation
					JOINT Neck1
					{
						OFFSET -0.054170 1.746240 0.172020
						CHANNELS 3 Zrotation Yrotation Xrotation
						JOINT Head
						{
							OFFSET 0.104070 1.761360 -0.123970
							CHANNELS 3 Zrotation Yrotation Xrotation
							End Site
							{
								OFFSET 0.000000 0.000000 0.000000
							}
						}
					}
				}
				JOINT LeftShoulder
				{
					OFFSET 0.000000 0.000000 0.000000
					CHANNELS 3 Zrotation Yrotation Xrotation
					JOINT LeftArm
					{
						OFFSET 3.362410 1.200890 -0.311210
						CHANNELS 3 Zrotation Yrotation Xrotation
						JOINT LeftForeArm
						{
							OFFSET 4.983000 -0.000000 -0.000000
							CHANNELS 3 Zrotation Yrotation Xrotation
							JOINT LeftHand
							{
								OFFSET 3.483560 -0.000000 -0.000000
								CHANNELS 3 Zrotation Yrotation Xrotation
								JOINT LeftFingerBase
								{
									OFFSET 0.000000 0.000000 0.000000
									CHANNELS 3 Zrotation Yrotation Xrotation
									JOINT LeftHandIndex1
									{
										OFFSET 0.715260 -0.000000 -0.000000
										CHANNELS 3 Zrotation Yrotation Xrotation
										End Site
										{
											OFFSET 0.000000 0.000000 0.000000
										}
									}
								}
								JOINT LThumb
								{
									OFFSET 0.000000 0.000000 0.000000
									CHANNELS 3 Zrotation Yrotation Xrotation
									End Site
									{
										OFFSET 0.000000 0.000000 0.000000
									}
								}
							}
						}
					}
				}
				JOINT RightShoulder
				{
					OFFSET 0.000000 0.000000 0.000000
					CHANNELS 3 Zrotation Yrotation Xrotation
					JOINT RightArm
					{
						OFFSET -3.136600 1.374050 -0.404650
						CHANNELS 3 Zrotation Yrotation Xrotation
						JOINT RightForeArm
						{
							OFFSET -5.241900 -0.000000 -0.000000
							CHANNELS 3 Zrotation Yrotation Xrotation
							JOINT RightHand
							{
								OFFSET -3.444170 -0.000000 -0.000000
								CHANNELS 3 Zrotation Yrotation Xrotation
								JOINT RightFingerBase
								{
									OFFSET 0.000000 0.000000 0.000000
									CHANNELS 3 Zrotation Yrotation Xrotation
									JOINT RightHandIndex1
									{
										OFFSET -0.622530 -0.000000 -0.000000
										CHANNELS 3 Zrotation Yrotation Xrotation
										End Site
										{
											OFFSET 0.000000 0.000000 0.000000
										}
									}
								}
								JOINT RThumb
								{
									OFFSET 0.000000 0.000000 0.000000
									CHANNELS 3 Zrotation Yrotation Xrotation
									End Site
									{
										OFFSET 0.000000 0.000000 0.000000
									}
								}
							}
						}
					}
				}
			}
		}
	}
}
MOTION
Frames: 9
Frame Time: 0.008333
9.244630 18.115353 -38.942980 174.059144 -62.134962 -171.156511 -2.103196 2.584903 1.920287 -18.182063 -18.377163 -3.425671 -3.304592 6.196035 17.974983 -2.491574 9.507703 2.919151 6.874400 -15.225200 -48.397700 -4.558766 -2.425692 -0.573876 12.895412 16.120235 -15.291963 -1.731421 -13.480836 38.938262 2.613911 -10.707755 -7.077280 -0.994100 6.345400 -17.789900 -0.304734 -0.540690 5.950638 1.268958 -0.795762 1.392003 -2.566009 -0.337125 -12.257738 -10.546954 -4.783738 -10.627800 13.061318 -6.981321 0.288499 2.862200 -3.769400 0.805200 -1.814041 -11.904671 1.732711 -88.786301 -1.197597 38.000258 26.069881 -26.358010 -7.775259 1.408717 0.986305 13.049431 8.618414 -33.915520 -4.351400 -7.125000 0.000000 0.000000 -13.853700 -4.663100 15.374800 0.866551 10.156779 2.413369 91.561891 -11.148644 12.164583 -19.127900 21.785701 -5.061001 1.257893 0.313377 24.355332 5.171299 -51.979293 -3.321800 7.125000 0.000000 0.000000 74.675400 -69.873000 -53.132200 
9.240621 18.109104 -39.007479 173.503896 -63.926356 -170.450206 -2.164217 2.525469 1.847426 -17.864522 -18.666329 -3.688450 -3.268836 6.260409 18.156646 -2.041594 8.433805 3.300214 7.247300 -15.536700 -49.803600 -4.536043 -2.458674 -0.523151 12.301581 17.476634 -14.546965 -1.397799 -13.051002 37.605836 2.117454 -9.263764 -6.501160 -0.875600 5.965600 -16.684800 -0.383683 -0.625854 5.949719 1.432815 -0.905122 1.142471 -2.493148 -0.402303 -12.306030 -9.715313 -3.614519 -11.182780 12.445778 -5.419949 0.733293 2.506100 -2.964900 0.859400 -1.843356 -11.841803 1.744496 -88.781132 -1.150124 38.184516 26.093284 -26.377712 -7.790909 1.436677 0.959738 13.351036 7.962327 -33.725554 -3.931700 -7.125000 0.000000 0.000000 -14.205300 -4.371000 15.722100 0.859421 10.213604 2.468557 91.658446 -11.634364 12.334797 -19.335658 22.041265 -5.134360 1.246895 0.348044 23.068648 5.257031 -51.698490 -3.382900 7.125000 0.000000 0.000000 74.016500 -69.757800 -52.370900 
9.233075 18.116414 -39.069267 172.979881 -65.760184 -169.741969 -2.230536 2.457862 1.775825 -17.463167 -18.972411 -4.015851 -3.227976 6.326026 18.357457 -1.414459 6.935794 3.709344 7.473200 -15.717800 -50.642200 -4.521113 -2.488363 -0.476407 11.826683 18.655872 -13.883239 -1.092035 -12.636022 36.354731 1.589456 -7.766213 -5.993299 -0.770500 5.605100 -15.642800 -0.225710 -0.732057 5.930324 1.375735 -1.027101 0.880182 -2.548816 -0.489764 -12.334007 -8.856479 -2.426801 -11.835569 11.959425 -3.826787 1.194958 2.196400 -2.142900 0.961000 -1.816485 -11.765102 1.782685 -88.406291 -0.761825 39.003183 26.506778 -26.811260 -8.008519 1.402755 0.934485 12.720596 7.721236 -33.096011 -3.734200 -7.125000 0.000000 0.000000 -14.286800 -3.683700 15.657100 0.856569 10.257035 2.509873 91.879097 -12.051109 12.300169 -19.556048 22.312964 -5.202613 1.230736 0.391642 21.947598 6.026197 -51.139139 -3.980100 7.125000 0.000000 0.000000 73.137100 -69.321700 -51.005800 
9.225174 18.114292 -39.130111 172.427722 -67.479044 -169.046919 -2.289597 2.397466 1.709900 -17.099023 -19.250587 -4.332372 -3.183098 6.405493 18.579862 -0.914762 5.743190 4.044220 7.720000 -15.909400 -51.547700 -4.504988 -2.522423 -0.436003 11.489560 19.542669 -13.326046 -0.806473 -12.245907 35.170064 1.442308 -7.310479 -5.510288 -1.267700 7.136600 -20.120800 -0.054304 -0.788244 5.927291 1.324606 -1.076791 0.667256 -2.635872 -0.547044 -12.365558 -7.801988 -1.163009 -12.423037 11.406160 -2.147365 1.652518 1.843000 -1.280000 1.066600 -1.828349 -11.689698 1.810666 -88.134644 -0.681986 39.402649 26.231300 -26.511447 -7.877030 1.379926 0.993781 12.007784 8.568566 -33.872621 -4.319000 -7.125000 0.000000 0.000000 -13.872700 -4.595200 15.381900 0.860545 10.326898 2.548878 92.138751 -12.408916 11.964335 -19.732577 22.519252 -5.236858 1.220871 0.421737 21.221398 6.504753 -50.222399 -4.313100 7.125000 0.000000 0.000000 71.251100 -68.845400 -48.677400 
9.218807 18.101321 -39.194846 171.947043 -69.158312 -168.532679 -2.334739 2.365298 1.666493 -16.715926 -19.555103 -4.543209 -3.129238 6.498615 18.845951 -0.466428 4.668707 4.276104 7.953200 -16.084700 -52.393900 -4.482687 -2.581018 -0.378244 11.264725 20.381241 -12.653053 -0.546643 -11.865057 34.080892 1.339689 -7.001102 -5.263038 -1.813000 8.465200 -24.136400 0.117180 -0.779058 5.979485 1.379424 -1.032970 0.609357 -2.727436 -0.553995 -12.406090 -6.699700 0.059481 -12.651948 10.625064 -0.557238 1.767816 1.418500 -0.489700 1.038000 -1.828116 -11.617116 1.829834 -87.921141 -0.452570 39.779951 26.306870 -26.620763 -7.958914 1.362910 1.029572 11.395779 8.824152 -34.881343 -4.588300 -7.125000 0.000000 0.000000 -13.805600 -5.632000 15.532000 0.843411 10.377591 2.569983 92.359629 -12.661735 11.405481 -19.865345 22.674538 -5.257113 1.218301 0.434784 20.600649 6.161157 -49.459860 -3.998600 7.125000 0.000000 0.000000 69.205500 -68.668800 -46.620700 
9.213619 18.086818 -39.264769 171.118883 -70.928884 -167.731193 -2.376667 2.328147 1.627999 -16.381901 -19.831611 -4.768110 -3.060053 6.615858 19.191066 0.114391 3.260848 4.426940 8.144300 -16.224400 -53.080900 -4.466476 -2.663827 -0.294725 11.000508 21.275091 -11.832939 -0.325389 -11.488686 33.099426 1.011720 -6.116836 -5.236612 -1.891200 8.635800 -24.662500 0.258855 -0.827494 6.043370 1.294795 -1.075946 0.629468 -2.773510 -0.594296 -12.425905 -5.275533 1.372556 -12.742175 9.595339 1.130235 1.675492 0.878400 0.331000 0.950800 -1.769055 -11.522857 1.868192 -87.243617 -0.013417 41.309455 27.007398 -27.378194 -8.359536 1.293965 1.017222 9.817293 8.640322 -34.589259 -4.457800 -7.125000 0.000000 0.000000 -13.861100 -5.268000 15.518000 0.810768 10.420525 2.584273 92.460451 -12.871842 11.493785 -19.972888 22.812232 -5.291164 1.214105 0.454566 19.359994 5.417791 -49.152305 -3.402100 7.125000 0.000000 0.000000 67.928600 -68.786800 -45.643100 
9.207133 18.080686 -39.332099 169.924425 -72.740310 -166.514681 -2.422483 2.260736 1.577285 -16.081889 -20.042712 -5.105944 -2.985346 6.740262 19.550308 0.756080 1.690654 4.518880 8.344500 -16.366900 -53.794400 -4.461166 -2.745523 -0.197946 10.653558 22.069168 -11.105221 -0.145147 -11.129429 32.199673 0.259100 -4.100379 -5.046707 -1.475400 7.675200 -21.731800 0.343711 -0.950386 5.960290 1.188403 -1.225139 0.706369 -2.797312 -0.685492 -12.340055 -3.943712 2.793504 -12.995494 8.971304 2.978059 1.819179 0.498500 1.252200 1.009500 -1.753060 -11.447354 1.876449 -86.865425 0.012880 41.331122 27.074122 -27.446223 -8.390298 1.279940 1.026804 9.558570 8.913453 -34.712142 -4.640200 -7.125000 0.000000 0.000000 -13.720300 -5.430200 15.386600 0.791007 10.495075 2.613334 92.328165 -13.069465 12.318733 -20.121126 22.989456 -5.352813 1.204547 0.484959 17.769291 4.959369 -48.993641 -3.038900 7.125000 0.000000 0.000000 67.212200 -68.870800 -45.121700 
9.203950 18.078446 -39.398013 169.005661 -74.595007 -165.581750 -2.477231 2.238851 1.521851 -15.648627 -20.747847 -5.173654 -2.923300 6.823327 19.801263 1.251300 0.475212 4.584078 8.383400 -16.394100 -53.932200 -4.456753 -2.855729 -0.089025 10.528864 22.889949 -10.347301 0.002962 -10.823324 31.451151 -0.211485 -2.778712 -4.548386 -1.384500 7.445000 -21.040700 0.380690 -0.954442 5.811000 1.476589 -1.204408 0.930790 -2.800993 -0.693074 -12.186274 -3.141766 4.183342 -13.139910 8.386944 4.810650 1.858438 0.215400 2.156400 1.051500 -1.763340 -11.412662 1.874979 -86.576208 -0.137401 41.809975 27.168756 -27.531163 -8.436727 1.248848 1.036908 8.923087 9.273899 -34.591314 -4.851600 -7.125000 0.000000 0.000000 -13.509500 -5.360700 15.121800 0.744765 10.554051 2.629070 92.090129 -13.108130 12.170776 -20.265364 23.159883 -5.410384 1.204527 0.487328 16.996636 4.250991 -48.935665 -2.484800 7.125000 0.000000 0.000000 66.514600 -69.075700 -44.768700 
9.180485 18.071607 -39.463102 168.561728 -76.069628 -165.172842 -2.525177 2.318887 1.507955 -15.312978 -22.016954 -4.722957 -2.862715 6.859304 19.995832 1.818491 -0.994139 5.055521 7.427500 -15.681600 -50.473200 -4.440556 -2.996432 0.030328 10.599895 23.861638 -9.421192 0.137514 -10.560335 30.837043 -0.105194 -3.001477 -4.241389 -1.986400 8.837700 -25.289000 0.477438 -0.899852 5.378241 1.743390 -1.105771 1.400308 -2.831241 -0.667164 -11.813868 -2.007361 5.613096 -13.437307 7.666304 6.706840 1.940913 -0.138700 3.093400 1.180000 -1.742467 -11.357328 1.876619 -86.000529 -0.098294 42.818112 27.711474 -28.070602 -8.724536 1.174364 1.030665 7.393802 9.616498 -33.925242 -4.991600 -7.125000 0.000000 0.000000 -13.250400 -4.721400 14.680400 0.671149 10.640324 2.629636 91.824659 -12.986990 12.170936 -20.339845 23.246413 -5.448081 1.212184 0.479020 16.359917 3.132184 -49.061471 -1.616400 7.125000 0.000000 0.000000 65.929600 -69.495100 -44.774500 
